<?xml version="1.0" encoding="UTF-8" standalone="no"?>
<!DOCTYPE svg PUBLIC "-//W3C//DTD SVG 1.1//EN"
 "http://www.w3.org/Graphics/SVG/1.1/DTD/svg11.dtd">
<!-- Generated by graphviz version 2.36.0 (20140111.2315)
 -->
<!-- Title: /tmp/go&#45;build132880088/command&#45;line&#45;arguments/_obj/exe/psrl; 3003 samples Pages: 1 -->
<svg width="100%" height="100%"
  xmlns="http://www.w3.org/2000/svg" xmlns:xlink="http://www.w3.org/1999/xlink">
<script type="text/ecmascript"><![CDATA[
// SVGPan
// http://www.cyberz.org/blog/2009/12/08/svgpan-a-javascript-svg-panzoomdrag-library/
// Local modification: if(true || ...) below to force panning, never moving.
// Local modification: add clamping to fix bug in handleMouseWheel.

/**
 *  SVGPan library 1.2
 * ====================
 *
 * Given an unique existing element with id "viewport", including the
 * the library into any SVG adds the following capabilities:
 *
 *  - Mouse panning
 *  - Mouse zooming (using the wheel)
 *  - Object dargging
 *
 * Known issues:
 *
 *  - Zooming (while panning) on Safari has still some issues
 *
 * Releases:
 *
 * 1.2, Sat Mar 20 08:42:50 GMT 2010, Zeng Xiaohui
 *	Fixed a bug with browser mouse handler interaction
 *
 * 1.1, Wed Feb  3 17:39:33 GMT 2010, Zeng Xiaohui
 *	Updated the zoom code to support the mouse wheel on Safari/Chrome
 *
 * 1.0, Andrea Leofreddi
 *	First release
 *
 * This code is licensed under the following BSD license:
 *
 * Copyright 2009-2010 Andrea Leofreddi <a.leofreddi@itcharm.com>. All rights reserved.
 *
 * Redistribution and use in source and binary forms, with or without modification, are
 * permitted provided that the following conditions are met:
 *
 *    1. Redistributions of source code must retain the above copyright notice, this list of
 *       conditions and the following disclaimer.
 *
 *    2. Redistributions in binary form must reproduce the above copyright notice, this list
 *       of conditions and the following disclaimer in the documentation and/or other materials
 *       provided with the distribution.
 *
 * THIS SOFTWARE IS PROVIDED BY Andrea Leofreddi ``AS IS'' AND ANY EXPRESS OR IMPLIED
 * WARRANTIES, INCLUDING, BUT NOT LIMITED TO, THE IMPLIED WARRANTIES OF MERCHANTABILITY AND
 * FITNESS FOR A PARTICULAR PURPOSE ARE DISCLAIMED. IN NO EVENT SHALL Andrea Leofreddi OR
 * CONTRIBUTORS BE LIABLE FOR ANY DIRECT, INDIRECT, INCIDENTAL, SPECIAL, EXEMPLARY, OR
 * CONSEQUENTIAL DAMAGES (INCLUDING, BUT NOT LIMITED TO, PROCUREMENT OF SUBSTITUTE GOODS OR
 * SERVICES; LOSS OF USE, DATA, OR PROFITS; OR BUSINESS INTERRUPTION) HOWEVER CAUSED AND ON
 * ANY THEORY OF LIABILITY, WHETHER IN CONTRACT, STRICT LIABILITY, OR TORT (INCLUDING
 * NEGLIGENCE OR OTHERWISE) ARISING IN ANY WAY OUT OF THE USE OF THIS SOFTWARE, EVEN IF
 * ADVISED OF THE POSSIBILITY OF SUCH DAMAGE.
 *
 * The views and conclusions contained in the software and documentation are those of the
 * authors and should not be interpreted as representing official policies, either expressed
 * or implied, of Andrea Leofreddi.
 */

var root = document.documentElement;

var state = 'none', stateTarget, stateOrigin, stateTf;

setupHandlers(root);

/**
 * Register handlers
 */
function setupHandlers(root){
	setAttributes(root, {
		"onmouseup" : "add(evt)",
		"onmousedown" : "handleMouseDown(evt)",
		"onmousemove" : "handleMouseMove(evt)",
		"onmouseup" : "handleMouseUp(evt)",
		//"onmouseout" : "handleMouseUp(evt)", // Decomment this to stop the pan functionality when dragging out of the SVG element
	});

	if(navigator.userAgent.toLowerCase().indexOf('webkit') >= 0)
		window.addEventListener('mousewheel', handleMouseWheel, false); // Chrome/Safari
	else
		window.addEventListener('DOMMouseScroll', handleMouseWheel, false); // Others

	var g = svgDoc.getElementById("svg");
	g.width = "100%";
	g.height = "100%";
}

/**
 * Instance an SVGPoint object with given event coordinates.
 */
function getEventPoint(evt) {
	var p = root.createSVGPoint();

	p.x = evt.clientX;
	p.y = evt.clientY;

	return p;
}

/**
 * Sets the current transform matrix of an element.
 */
function setCTM(element, matrix) {
	var s = "matrix(" + matrix.a + "," + matrix.b + "," + matrix.c + "," + matrix.d + "," + matrix.e + "," + matrix.f + ")";

	element.setAttribute("transform", s);
}

/**
 * Dumps a matrix to a string (useful for debug).
 */
function dumpMatrix(matrix) {
	var s = "[ " + matrix.a + ", " + matrix.c + ", " + matrix.e + "\n  " + matrix.b + ", " + matrix.d + ", " + matrix.f + "\n  0, 0, 1 ]";

	return s;
}

/**
 * Sets attributes of an element.
 */
function setAttributes(element, attributes){
	for (i in attributes)
		element.setAttributeNS(null, i, attributes[i]);
}

/**
 * Handle mouse move event.
 */
function handleMouseWheel(evt) {
	if(evt.preventDefault)
		evt.preventDefault();

	evt.returnValue = false;

	var svgDoc = evt.target.ownerDocument;

	var delta;

	if(evt.wheelDelta)
		delta = evt.wheelDelta / 3600; // Chrome/Safari
	else
		delta = evt.detail / -90; // Mozilla

	var z = 1 + delta; // Zoom factor: 0.9/1.1

	// Clamp to reasonable values.
	// The 0.1 check is important because
	// a very large scroll can turn into a
	// negative z, which rotates the image 180 degrees.
	if(z < 0.1)
		z = 0.1;
	if(z > 10.0)
		z = 10.0;

	var g = svgDoc.getElementById("viewport");

	var p = getEventPoint(evt);

	p = p.matrixTransform(g.getCTM().inverse());

	// Compute new scale matrix in current mouse position
	var k = root.createSVGMatrix().translate(p.x, p.y).scale(z).translate(-p.x, -p.y);

        setCTM(g, g.getCTM().multiply(k));

	stateTf = stateTf.multiply(k.inverse());
}

/**
 * Handle mouse move event.
 */
function handleMouseMove(evt) {
	if(evt.preventDefault)
		evt.preventDefault();

	evt.returnValue = false;

	var svgDoc = evt.target.ownerDocument;

	var g = svgDoc.getElementById("viewport");

	if(state == 'pan') {
		// Pan mode
		var p = getEventPoint(evt).matrixTransform(stateTf);

		setCTM(g, stateTf.inverse().translate(p.x - stateOrigin.x, p.y - stateOrigin.y));
	} else if(state == 'move') {
		// Move mode
		var p = getEventPoint(evt).matrixTransform(g.getCTM().inverse());

		setCTM(stateTarget, root.createSVGMatrix().translate(p.x - stateOrigin.x, p.y - stateOrigin.y).multiply(g.getCTM().inverse()).multiply(stateTarget.getCTM()));

		stateOrigin = p;
	}
}

/**
 * Handle click event.
 */
function handleMouseDown(evt) {
	if(evt.preventDefault)
		evt.preventDefault();

	evt.returnValue = false;

	var svgDoc = evt.target.ownerDocument;

	var g = svgDoc.getElementById("viewport");

	if(true || evt.target.tagName == "svg") {
		// Pan mode
		state = 'pan';

		stateTf = g.getCTM().inverse();

		stateOrigin = getEventPoint(evt).matrixTransform(stateTf);
	} else {
		// Move mode
		state = 'move';

		stateTarget = evt.target;

		stateTf = g.getCTM().inverse();

		stateOrigin = getEventPoint(evt).matrixTransform(stateTf);
	}
}

/**
 * Handle mouse button release event.
 */
function handleMouseUp(evt) {
	if(evt.preventDefault)
		evt.preventDefault();

	evt.returnValue = false;

	var svgDoc = evt.target.ownerDocument;

	if(state == 'pan' || state == 'move') {
		// Quit pan mode
		state = '';
	}
}

]]></script>
<g id="viewport" transform="translate(0,0)">
<g id="viewport" class="graph" transform="scale(1 1) rotate(0) translate(4 1776)">
<title>/tmp/go&#45;build132880088/command&#45;line&#45;arguments/_obj/exe/psrl; 3003 samples</title>
<polygon fill="white" stroke="none" points="-4,4 -4,-1776 2352,-1776 2352,4 -4,4"/>
<!-- Legend -->
<g id="node1" class="node"><title>Legend</title>
<text text-anchor="start" x="924.596" y="-1748.8" font-family="Times,serif" font-size="24.00">/tmp/go&#45;build132880088/command&#45;line&#45;arguments/_obj/exe/psrl</text>
<text text-anchor="start" x="924.596" y="-1724.8" font-family="Times,serif" font-size="24.00">Total samples: 3003</text>
<text text-anchor="start" x="924.596" y="-1700.8" font-family="Times,serif" font-size="24.00">Focusing on: 3003</text>
<text text-anchor="start" x="924.596" y="-1676.8" font-family="Times,serif" font-size="24.00">Dropped nodes with &lt;= 15 abs(samples)</text>
<text text-anchor="start" x="924.596" y="-1652.8" font-family="Times,serif" font-size="24.00">Dropped edges with &lt;= 3 samples</text>
</g>
<!-- N1 -->
<g id="node2" class="node"><title>N1</title>
<polygon fill="none" stroke="black" points="1654.14,-1725.2 1575.86,-1725.2 1575.86,-1690.8 1654.14,-1690.8 1654.14,-1725.2"/>
<text text-anchor="middle" x="1615" y="-1714.23" font-family="Times,serif" font-size="8.90">runtime.gosched0</text>
<text text-anchor="end" x="1646.76" y="-1705.33" font-family="Times,serif" font-size="8.90">1 (0.0%)</text>
<text text-anchor="end" x="1646.76" y="-1696.43" font-family="Times,serif" font-size="8.90">of 2267 (75.5%)</text>
</g>
<!-- N5 -->
<g id="node6" class="node"><title>N5</title>
<polygon fill="none" stroke="black" points="1648.99,-1578 1581.01,-1578 1581.01,-1546 1648.99,-1546 1648.99,-1578"/>
<text text-anchor="middle" x="1615" y="-1567.6" font-family="Times,serif" font-size="8.00">runtime.main</text>
<text text-anchor="end" x="1641.33" y="-1559.6" font-family="Times,serif" font-size="8.00">0 (0.0%)</text>
<text text-anchor="end" x="1641.33" y="-1551.6" font-family="Times,serif" font-size="8.00">of 2266 (75.5%)</text>
</g>
<!-- N1&#45;&gt;N5 -->
<g id="edge47" class="edge"><title>N1&#45;&gt;N5</title>
<path fill="none" stroke="black" stroke-width="2" d="M1615,-1690.76C1615,-1665.85 1615,-1617.98 1615,-1588.43"/>
<polygon fill="black" stroke="black" stroke-width="2" points="1618.5,-1588.09 1615,-1578.09 1611.5,-1588.09 1618.5,-1588.09"/>
<text text-anchor="middle" x="1629" y="-1614.8" font-family="Times,serif" font-size="14.00">2266</text>
</g>
<!-- N2 -->
<g id="node3" class="node"><title>N2</title>
<polygon fill="none" stroke="black" points="1712.28,-1398 1517.72,-1398 1517.72,-1366 1712.28,-1366 1712.28,-1398"/>
<text text-anchor="middle" x="1615" y="-1387.6" font-family="Times,serif" font-size="8.00">github.com/Sereal/Sereal/Go/sereal.(*Encoder).Marshal</text>
<text text-anchor="end" x="1704.86" y="-1379.6" font-family="Times,serif" font-size="8.00">0 (0.0%)</text>
<text text-anchor="end" x="1704.86" y="-1371.6" font-family="Times,serif" font-size="8.00">of 2266 (75.5%)</text>
</g>
<!-- N3 -->
<g id="node4" class="node"><title>N3</title>
<polygon fill="none" stroke="black" points="1732.36,-1316 1497.64,-1316 1497.64,-1284 1732.36,-1284 1732.36,-1316"/>
<text text-anchor="middle" x="1615" y="-1305.6" font-family="Times,serif" font-size="8.00">github.com/Sereal/Sereal/Go/sereal.(*Encoder).MarshalWithHeader</text>
<text text-anchor="end" x="1724.24" y="-1297.6" font-family="Times,serif" font-size="8.00">0 (0.0%)</text>
<text text-anchor="end" x="1724.24" y="-1289.6" font-family="Times,serif" font-size="8.00">of 2266 (75.5%)</text>
</g>
<!-- N2&#45;&gt;N3 -->
<g id="edge19" class="edge"><title>N2&#45;&gt;N3</title>
<path fill="none" stroke="black" stroke-width="2" d="M1615,-1365.95C1615,-1354.85 1615,-1339.48 1615,-1326.47"/>
<polygon fill="black" stroke="black" stroke-width="2" points="1618.5,-1326.25 1615,-1316.25 1611.5,-1326.25 1618.5,-1326.25"/>
<text text-anchor="middle" x="1629" y="-1336.8" font-family="Times,serif" font-size="14.00">2266</text>
</g>
<!-- N6 -->
<g id="node7" class="node"><title>N6</title>
<polygon fill="none" stroke="black" points="1861.35,-1233.6 1368.65,-1233.6 1368.65,-1160.4 1861.35,-1160.4 1861.35,-1233.6"/>
<text text-anchor="middle" x="1615" y="-1212.19" font-family="Times,serif" font-size="21.70">github.com/Sereal/Sereal/Go/sereal.(*Encoder).encode</text>
<text text-anchor="end" x="1853.9" y="-1190.49" font-family="Times,serif" font-size="21.70">224 (7.5%)</text>
<text text-anchor="end" x="1853.9" y="-1168.79" font-family="Times,serif" font-size="21.70">of 2204 (73.4%)</text>
</g>
<!-- N3&#45;&gt;N6 -->
<g id="edge7" class="edge"><title>N3&#45;&gt;N6</title>
<path fill="none" stroke="black" stroke-width="2" d="M1615,-1283.66C1615,-1273 1615,-1258.2 1615,-1243.89"/>
<polygon fill="black" stroke="black" stroke-width="2" points="1618.5,-1243.63 1615,-1233.63 1611.5,-1243.63 1618.5,-1243.63"/>
<text text-anchor="middle" x="1629" y="-1254.8" font-family="Times,serif" font-size="14.00">2204</text>
</g>
<!-- N15 -->
<g id="node16" class="node"><title>N15</title>
<polygon fill="none" stroke="black" points="428.488,-750 355.512,-750 355.512,-718 428.488,-718 428.488,-750"/>
<text text-anchor="middle" x="392" y="-739.6" font-family="Times,serif" font-size="8.00">runtime.growslice</text>
<text text-anchor="end" x="420.992" y="-731.6" font-family="Times,serif" font-size="8.00">0 (0.0%)</text>
<text text-anchor="end" x="420.992" y="-723.6" font-family="Times,serif" font-size="8.00">of 228 (7.6%)</text>
</g>
<!-- N3&#45;&gt;N15 -->
<g id="edge38" class="edge"><title>N3&#45;&gt;N15</title>
<path fill="none" stroke="black" d="M1497.76,-1297.61C1132.28,-1292.51 38,-1271.13 38,-1198 38,-1198 38,-1198 38,-843 38,-826.076 43.3682,-820.03 57,-810 143.986,-746 275.665,-735.025 345.19,-734.075"/>
<polygon fill="black" stroke="black" points="345.416,-737.574 355.391,-734.003 345.366,-730.574 345.416,-737.574"/>
<text text-anchor="middle" x="45" y="-1004.8" font-family="Times,serif" font-size="14.00">31</text>
</g>
<!-- N19 -->
<g id="node20" class="node"><title>N19</title>
<polygon fill="none" stroke="black" points="335.341,-575.8 160.659,-575.8 160.659,-526.2 335.341,-526.2 335.341,-575.8"/>
<text text-anchor="middle" x="248" y="-555.18" font-family="Times,serif" font-size="20.90">runtime.memmove</text>
<text text-anchor="end" x="327.227" y="-534.28" font-family="Times,serif" font-size="20.90">200 (6.7%)</text>
</g>
<!-- N3&#45;&gt;N19 -->
<g id="edge29" class="edge"><title>N3&#45;&gt;N19</title>
<path fill="none" stroke="black" d="M1497.74,-1299.79C1267.59,-1300.53 740.637,-1298.13 299,-1266 163.077,-1256.11 0,-1334.28 0,-1198 0,-1198 0,-1198 0,-641 0,-607.537 81.0006,-583.254 150.418,-568.587"/>
<polygon fill="black" stroke="black" points="151.478,-571.942 160.564,-566.493 150.063,-565.087 151.478,-571.942"/>
<text text-anchor="middle" x="7" y="-898.8" font-family="Times,serif" font-size="14.00">31</text>
</g>
<!-- N4 -->
<g id="node5" class="node"><title>N4</title>
<polygon fill="none" stroke="black" points="1648.99,-1480 1581.01,-1480 1581.01,-1448 1648.99,-1448 1648.99,-1480"/>
<text text-anchor="middle" x="1615" y="-1469.6" font-family="Times,serif" font-size="8.00">main.main</text>
<text text-anchor="end" x="1641.33" y="-1461.6" font-family="Times,serif" font-size="8.00">0 (0.0%)</text>
<text text-anchor="end" x="1641.33" y="-1453.6" font-family="Times,serif" font-size="8.00">of 2266 (75.5%)</text>
</g>
<!-- N4&#45;&gt;N2 -->
<g id="edge8" class="edge"><title>N4&#45;&gt;N2</title>
<path fill="none" stroke="black" stroke-width="2" d="M1615,-1447.95C1615,-1436.85 1615,-1421.48 1615,-1408.47"/>
<polygon fill="black" stroke="black" stroke-width="2" points="1618.5,-1408.25 1615,-1398.25 1611.5,-1408.25 1618.5,-1408.25"/>
<text text-anchor="middle" x="1629" y="-1418.8" font-family="Times,serif" font-size="14.00">2266</text>
</g>
<!-- N5&#45;&gt;N4 -->
<g id="edge2" class="edge"><title>N5&#45;&gt;N4</title>
<path fill="none" stroke="black" stroke-width="2" d="M1615,-1545.58C1615,-1530.65 1615,-1507.78 1615,-1490.2"/>
<polygon fill="black" stroke="black" stroke-width="2" points="1618.5,-1490.07 1615,-1480.07 1611.5,-1490.07 1618.5,-1490.07"/>
<text text-anchor="middle" x="1629" y="-1500.8" font-family="Times,serif" font-size="14.00">2266</text>
</g>
<!-- N7 -->
<g id="node8" class="node"><title>N7</title>
<polygon fill="none" stroke="black" points="1168.01,-1104.8 659.995,-1104.8 659.995,-1039.2 1168.01,-1039.2 1168.01,-1104.8"/>
<text text-anchor="middle" x="914" y="-1085.37" font-family="Times,serif" font-size="19.10">github.com/Sereal/Sereal/Go/sereal.(*Encoder).encodeIntfArray</text>
<text text-anchor="end" x="1160.34" y="-1066.27" font-family="Times,serif" font-size="19.10">147 (4.9%)</text>
<text text-anchor="end" x="1160.34" y="-1047.17" font-family="Times,serif" font-size="19.10">of 2204 (73.4%)</text>
</g>
<!-- N6&#45;&gt;N7 -->
<g id="edge30" class="edge"><title>N6&#45;&gt;N7</title>
<path fill="none" stroke="black" stroke-width="2" d="M1383.03,-1160.44C1346.19,-1154.49 1308.53,-1148.22 1273,-1142 1210.82,-1131.12 1142.76,-1118.28 1082.79,-1106.64"/>
<polygon fill="black" stroke="black" stroke-width="2" points="1083.33,-1103.18 1072.85,-1104.71 1081.99,-1110.05 1083.33,-1103.18"/>
<text text-anchor="middle" x="1287" y="-1130.8" font-family="Times,serif" font-size="14.00">2837</text>
</g>
<!-- N8 -->
<g id="node9" class="node"><title>N8</title>
<polygon fill="none" stroke="black" points="1954.31,-1109.7 1377.69,-1109.7 1377.69,-1034.3 1954.31,-1034.3 1954.31,-1109.7"/>
<text text-anchor="middle" x="1666" y="-1087.68" font-family="Times,serif" font-size="22.40">github.com/Sereal/Sereal/Go/sereal.(*Encoder).encodeStrMap</text>
<text text-anchor="end" x="1946.21" y="-1065.28" font-family="Times,serif" font-size="22.40">250 (8.3%)</text>
<text text-anchor="end" x="1946.21" y="-1042.88" font-family="Times,serif" font-size="22.40">of 2203 (73.4%)</text>
</g>
<!-- N6&#45;&gt;N8 -->
<g id="edge16" class="edge"><title>N6&#45;&gt;N8</title>
<path fill="none" stroke="black" stroke-width="2" d="M1635.29,-1160.43C1638.4,-1154.37 1641.43,-1148.07 1644,-1142 1647.07,-1134.76 1649.95,-1126.93 1652.56,-1119.24"/>
<polygon fill="black" stroke="black" stroke-width="2" points="1655.92,-1120.22 1655.7,-1109.63 1649.27,-1118.04 1655.92,-1120.22"/>
<text text-anchor="middle" x="1664" y="-1130.8" font-family="Times,serif" font-size="14.00">6155</text>
</g>
<!-- N10 -->
<g id="node11" class="node"><title>N10</title>
<polygon fill="none" stroke="black" points="1688.56,-984 1281.44,-984 1281.44,-928 1688.56,-928 1688.56,-984"/>
<text text-anchor="middle" x="1485" y="-967.2" font-family="Times,serif" font-size="16.00">github.com/Sereal/Sereal/Go/sereal.(*Encoder).encodeString</text>
<text text-anchor="end" x="1680.71" y="-951.2" font-family="Times,serif" font-size="16.00">77 (2.6%)</text>
<text text-anchor="end" x="1680.71" y="-935.2" font-family="Times,serif" font-size="16.00">of 630 (21.0%)</text>
</g>
<!-- N6&#45;&gt;N10 -->
<g id="edge5" class="edge"><title>N6&#45;&gt;N10</title>
<path fill="none" stroke="black" d="M1422.88,-1160.34C1399.04,-1148.11 1377.6,-1131.78 1362,-1110 1342.33,-1082.54 1345.64,-1063.55 1362,-1034 1372.28,-1015.44 1389.11,-1000.76 1407.06,-989.41"/>
<polygon fill="black" stroke="black" points="1409.15,-992.238 1415.94,-984.105 1405.56,-986.228 1409.15,-992.238"/>
<text text-anchor="middle" x="1365.5" y="-1067.8" font-family="Times,serif" font-size="14.00">6</text>
</g>
<!-- N16 -->
<g id="node17" class="node"><title>N16</title>
<polygon fill="none" stroke="black" points="553.924,-867.1 230.076,-867.1 230.076,-820.9 553.924,-820.9 553.924,-867.1"/>
<text text-anchor="middle" x="392" y="-852.89" font-family="Times,serif" font-size="12.70">github.com/Sereal/Sereal/Go/sereal.(*Encoder).encodeBytes</text>
<text text-anchor="end" x="546.282" y="-840.19" font-family="Times,serif" font-size="12.70">26 (0.9%)</text>
<text text-anchor="end" x="546.282" y="-827.49" font-family="Times,serif" font-size="12.70">of 226 (7.5%)</text>
</g>
<!-- N6&#45;&gt;N16 -->
<g id="edge46" class="edge"><title>N6&#45;&gt;N16</title>
<path fill="none" stroke="black" d="M1368.27,-1189.09C985.568,-1177.15 288.596,-1150.04 251,-1110 183.063,-1037.64 294.245,-926.281 355.637,-873.995"/>
<polygon fill="black" stroke="black" points="358.179,-876.43 363.585,-867.318 353.676,-871.071 358.179,-876.43"/>
<text text-anchor="middle" x="254.5" y="-1004.8" font-family="Times,serif" font-size="14.00">226</text>
</g>
<!-- N18 -->
<g id="node19" class="node"><title>N18</title>
<polygon fill="none" stroke="black" points="204.055,-1097.8 73.9446,-1097.8 73.9446,-1046.2 204.055,-1046.2 204.055,-1097.8"/>
<text text-anchor="middle" x="139" y="-1082.22" font-family="Times,serif" font-size="14.60">runtime.assertE2T2</text>
<text text-anchor="end" x="196.37" y="-1067.62" font-family="Times,serif" font-size="14.60">53 (1.8%)</text>
<text text-anchor="end" x="196.37" y="-1053.02" font-family="Times,serif" font-size="14.60">of 209 (7.0%)</text>
</g>
<!-- N6&#45;&gt;N18 -->
<g id="edge12" class="edge"><title>N6&#45;&gt;N18</title>
<path fill="none" stroke="black" d="M1368.43,-1191.78C976.129,-1184.33 248.539,-1167.21 197,-1142 181.168,-1134.26 168.04,-1119.97 158.302,-1106.4"/>
<polygon fill="black" stroke="black" points="161.189,-1104.42 152.683,-1098.11 155.394,-1108.35 161.189,-1104.42"/>
<text text-anchor="middle" x="207.5" y="-1130.8" font-family="Times,serif" font-size="14.00">209</text>
</g>
<!-- N26 -->
<g id="node27" class="node"><title>N26</title>
<polygon fill="none" stroke="black" points="641.583,-1099.9 260.417,-1099.9 260.417,-1044.1 641.583,-1044.1 641.583,-1099.9"/>
<text text-anchor="middle" x="451" y="-1083.06" font-family="Times,serif" font-size="15.80">github.com/Sereal/Sereal/Go/sereal.(*Encoder).encodeInt</text>
<text text-anchor="end" x="633.722" y="-1067.26" font-family="Times,serif" font-size="15.80">73 (2.4%)</text>
<text text-anchor="end" x="633.722" y="-1051.46" font-family="Times,serif" font-size="15.80">of 119 (4.0%)</text>
</g>
<!-- N6&#45;&gt;N26 -->
<g id="edge33" class="edge"><title>N6&#45;&gt;N26</title>
<path fill="none" stroke="black" d="M1368.55,-1181.01C1173.3,-1167.46 893.907,-1144.31 651,-1110 633.447,-1107.52 615.087,-1104.59 596.911,-1101.48"/>
<polygon fill="black" stroke="black" points="597.289,-1098 586.839,-1099.74 596.095,-1104.89 597.289,-1098"/>
<text text-anchor="middle" x="899.244" y="-1130.8" font-family="Times,serif" font-size="14.00">119</text>
</g>
<!-- N35 -->
<g id="node36" class="node"><title>N35</title>
<polygon fill="none" stroke="black" points="1317.34,-1091.2 1186.66,-1091.2 1186.66,-1052.8 1317.34,-1052.8 1317.34,-1091.2"/>
<text text-anchor="middle" x="1252" y="-1075.02" font-family="Times,serif" font-size="15.10">runtime.efacethash</text>
<text text-anchor="end" x="1309.23" y="-1059.92" font-family="Times,serif" font-size="15.10">61 (2.0%)</text>
</g>
<!-- N6&#45;&gt;N35 -->
<g id="edge43" class="edge"><title>N6&#45;&gt;N35</title>
<path fill="none" stroke="black" d="M1368.4,-1160.47C1353.4,-1155.14 1338.81,-1149.03 1325,-1142 1304.8,-1131.72 1286.3,-1114.1 1272.98,-1099.24"/>
<polygon fill="black" stroke="black" points="1275.32,-1096.6 1266.13,-1091.33 1270.03,-1101.18 1275.32,-1096.6"/>
<text text-anchor="middle" x="1332" y="-1130.8" font-family="Times,serif" font-size="14.00">61</text>
</g>
<!-- N7&#45;&gt;N6 -->
<g id="edge9" class="edge"><title>N7&#45;&gt;N6</title>
<path fill="none" stroke="black" stroke-width="2" d="M958.165,-1104.78C979.702,-1118.62 1006.61,-1133.58 1033,-1142 1092.94,-1161.13 1231.39,-1174.4 1358.22,-1183"/>
<polygon fill="black" stroke="black" stroke-width="2" points="1358.28,-1186.51 1368.5,-1183.69 1358.75,-1179.53 1358.28,-1186.51"/>
<text text-anchor="middle" x="1047" y="-1130.8" font-family="Times,serif" font-size="14.00">2678</text>
</g>
<!-- N22 -->
<g id="node23" class="node"><title>N22</title>
<polygon fill="none" stroke="black" points="1067.12,-873.9 760.884,-873.9 760.884,-814.1 1067.12,-814.1 1067.12,-873.9"/>
<text text-anchor="middle" x="914" y="-856.11" font-family="Times,serif" font-size="17.30">github.com/Sereal/Sereal/Go/sereal.varint</text>
<text text-anchor="end" x="1059.08" y="-838.81" font-family="Times,serif" font-size="17.30">105 (3.5%)</text>
<text text-anchor="end" x="1059.08" y="-821.51" font-family="Times,serif" font-size="17.30">of 139 (4.6%)</text>
</g>
<!-- N7&#45;&gt;N22 -->
<g id="edge11" class="edge"><title>N7&#45;&gt;N22</title>
<path fill="none" stroke="black" d="M914,-1039.1C914,-998.435 914,-928.156 914,-884.25"/>
<polygon fill="black" stroke="black" points="917.5,-884.228 914,-874.228 910.5,-884.228 917.5,-884.228"/>
<text text-anchor="middle" x="917.5" y="-951.8" font-family="Times,serif" font-size="14.00">9</text>
</g>
<!-- N8&#45;&gt;N6 -->
<g id="edge20" class="edge"><title>N8&#45;&gt;N6</title>
<path fill="none" stroke="black" stroke-width="2" d="M1622.8,-1109.84C1618.42,-1115.47 1614.63,-1121.56 1612,-1128 1609.17,-1134.92 1607.92,-1142.57 1607.65,-1150.17"/>
<polygon fill="black" stroke="black" stroke-width="2" points="1604.15,-1150.48 1607.82,-1160.42 1611.15,-1150.37 1604.15,-1150.48"/>
<text text-anchor="middle" x="1626" y="-1130.8" font-family="Times,serif" font-size="14.00">4963</text>
</g>
<!-- N8&#45;&gt;N10 -->
<g id="edge13" class="edge"><title>N8&#45;&gt;N10</title>
<path fill="none" stroke="black" stroke-width="1.24675" d="M1607.73,-1034.3C1584.83,-1019.88 1558.77,-1003.46 1536.56,-989.477"/>
<polygon fill="black" stroke="black" stroke-width="1.24675" points="1538.27,-986.415 1527.94,-984.047 1534.54,-992.338 1538.27,-986.415"/>
<text text-anchor="middle" x="1586.5" y="-1004.8" font-family="Times,serif" font-size="14.00">624</text>
</g>
<!-- N20 -->
<g id="node21" class="node"><title>N20</title>
<polygon fill="none" stroke="black" points="1811.01,-976.201 1706.99,-976.201 1706.99,-935.799 1811.01,-935.799 1811.01,-976.201"/>
<text text-anchor="middle" x="1759" y="-963.63" font-family="Times,serif" font-size="10.90">runtime.mapiternext</text>
<text text-anchor="end" x="1803.34" y="-952.73" font-family="Times,serif" font-size="10.90">10 (0.3%)</text>
<text text-anchor="end" x="1803.34" y="-941.83" font-family="Times,serif" font-size="10.90">of 186 (6.2%)</text>
</g>
<!-- N8&#45;&gt;N20 -->
<g id="edge23" class="edge"><title>N8&#45;&gt;N20</title>
<path fill="none" stroke="black" d="M1695.94,-1034.3C1709.2,-1018.05 1724.53,-999.256 1736.75,-984.272"/>
<polygon fill="black" stroke="black" points="1739.58,-986.34 1743.19,-976.379 1734.16,-981.915 1739.58,-986.34"/>
<text text-anchor="middle" x="1731.5" y="-1004.8" font-family="Times,serif" font-size="14.00">186</text>
</g>
<!-- N8&#45;&gt;N22 -->
<g id="edge41" class="edge"><title>N8&#45;&gt;N22</title>
<path fill="none" stroke="black" d="M1466.25,-1034.37C1401.47,-1020.71 1329.66,-1003.67 1265,-984 1166.73,-954.102 1057.24,-908.72 987.094,-878.015"/>
<polygon fill="black" stroke="black" points="988.451,-874.788 977.888,-873.971 985.636,-881.197 988.451,-874.788"/>
<text text-anchor="middle" x="1268.5" y="-951.8" font-family="Times,serif" font-size="14.00">4</text>
</g>
<!-- N24 -->
<g id="node25" class="node"><title>N24</title>
<polygon fill="none" stroke="black" points="1920.45,-974.902 1829.55,-974.902 1829.55,-937.098 1920.45,-937.098 1920.45,-974.902"/>
<text text-anchor="middle" x="1875" y="-962.86" font-family="Times,serif" font-size="9.80">runtime.mapiterinit</text>
<text text-anchor="end" x="1912.97" y="-953.06" font-family="Times,serif" font-size="9.80">4 (0.1%)</text>
<text text-anchor="end" x="1912.97" y="-943.26" font-family="Times,serif" font-size="9.80">of 123 (4.1%)</text>
</g>
<!-- N8&#45;&gt;N24 -->
<g id="edge50" class="edge"><title>N8&#45;&gt;N24</title>
<path fill="none" stroke="black" d="M1733.28,-1034.3C1766.23,-1016.33 1804.86,-995.26 1833.46,-979.66"/>
<polygon fill="black" stroke="black" points="1835.27,-982.66 1842.37,-974.799 1831.91,-976.515 1835.27,-982.66"/>
<text text-anchor="middle" x="1800.5" y="-1004.8" font-family="Times,serif" font-size="14.00">123</text>
</g>
<!-- N9 -->
<g id="node10" class="node"><title>N9</title>
<polygon fill="none" stroke="black" points="1919.99,-1724 1856.01,-1724 1856.01,-1692 1919.99,-1692 1919.99,-1724"/>
<text text-anchor="middle" x="1888" y="-1713.6" font-family="Times,serif" font-size="8.00">GC</text>
<text text-anchor="end" x="1912.33" y="-1705.6" font-family="Times,serif" font-size="8.00">0 (0.0%)</text>
<text text-anchor="end" x="1912.33" y="-1697.6" font-family="Times,serif" font-size="8.00">of 733 (24.4%)</text>
</g>
<!-- N12 -->
<g id="node13" class="node"><title>N12</title>
<polygon fill="none" stroke="black" points="1820.36,-1593.1 1667.64,-1593.1 1667.64,-1530.9 1820.36,-1530.9 1820.36,-1593.1"/>
<text text-anchor="middle" x="1744" y="-1567.46" font-family="Times,serif" font-size="27.30">scanblock</text>
<text text-anchor="end" x="1812.24" y="-1540.16" font-family="Times,serif" font-size="27.30">447 (14.9%)</text>
</g>
<!-- N9&#45;&gt;N12 -->
<g id="edge6" class="edge"><title>N9&#45;&gt;N12</title>
<path fill="none" stroke="black" d="M1872.86,-1691.86C1851.36,-1670.36 1811.28,-1630.28 1781.51,-1600.51"/>
<polygon fill="black" stroke="black" points="1783.73,-1597.78 1774.18,-1593.18 1778.78,-1602.73 1783.73,-1597.78"/>
<text text-anchor="middle" x="1813.5" y="-1614.8" font-family="Times,serif" font-size="14.00">447</text>
</g>
<!-- N23 -->
<g id="node24" class="node"><title>N23</title>
<polygon fill="none" stroke="black" points="1937.26,-1584.7 1838.74,-1584.7 1838.74,-1539.3 1937.26,-1539.3 1937.26,-1584.7"/>
<text text-anchor="middle" x="1888" y="-1565.72" font-family="Times,serif" font-size="18.60">flushptrbuf</text>
<text text-anchor="end" x="1929.84" y="-1547.12" font-family="Times,serif" font-size="18.60">134 (4.5%)</text>
</g>
<!-- N9&#45;&gt;N23 -->
<g id="edge17" class="edge"><title>N9&#45;&gt;N23</title>
<path fill="none" stroke="black" d="M1888,-1691.86C1888,-1669 1888,-1625.12 1888,-1594.97"/>
<polygon fill="black" stroke="black" points="1891.5,-1594.94 1888,-1584.94 1884.5,-1594.94 1891.5,-1594.94"/>
<text text-anchor="middle" x="1898.5" y="-1614.8" font-family="Times,serif" font-size="14.00">134</text>
</g>
<!-- N27 -->
<g id="node28" class="node"><title>N27</title>
<polygon fill="none" stroke="black" points="2036.39,-1582.1 1955.61,-1582.1 1955.61,-1541.9 2036.39,-1541.9 2036.39,-1582.1"/>
<text text-anchor="middle" x="1996" y="-1565.26" font-family="Times,serif" font-size="16.30">markonly</text>
<text text-anchor="end" x="2028.59" y="-1548.96" font-family="Times,serif" font-size="16.30">82 (2.7%)</text>
</g>
<!-- N9&#45;&gt;N27 -->
<g id="edge37" class="edge"><title>N9&#45;&gt;N27</title>
<path fill="none" stroke="black" d="M1899.35,-1691.86C1917.37,-1667.84 1952.79,-1620.62 1975.38,-1590.5"/>
<polygon fill="black" stroke="black" points="1978.18,-1592.59 1981.38,-1582.49 1972.58,-1588.39 1978.18,-1592.59"/>
<text text-anchor="middle" x="1964" y="-1614.8" font-family="Times,serif" font-size="14.00">82</text>
</g>
<!-- N37 -->
<g id="node38" class="node"><title>N37</title>
<polygon fill="none" stroke="black" points="2163.03,-1580.7 2054.97,-1580.7 2054.97,-1543.3 2163.03,-1543.3 2163.03,-1580.7"/>
<text text-anchor="middle" x="2109" y="-1564.92" font-family="Times,serif" font-size="14.60">runtime.gettype</text>
<text text-anchor="end" x="2155.02" y="-1550.32" font-family="Times,serif" font-size="14.60">52 (1.7%)</text>
</g>
<!-- N9&#45;&gt;N37 -->
<g id="edge25" class="edge"><title>N9&#45;&gt;N37</title>
<path fill="none" stroke="black" d="M1911.23,-1691.86C1949.96,-1666.63 2027.96,-1615.8 2073.58,-1586.08"/>
<polygon fill="black" stroke="black" points="2075.51,-1589 2081.97,-1580.61 2071.68,-1583.14 2075.51,-1589"/>
<text text-anchor="middle" x="2038" y="-1614.8" font-family="Times,serif" font-size="14.00">52</text>
</g>
<!-- N40 -->
<g id="node41" class="node"><title>N40</title>
<polygon fill="none" stroke="black" points="2348.27,-1577.8 2181.73,-1577.8 2181.73,-1546.2 2348.27,-1546.2 2348.27,-1577.8"/>
<text text-anchor="middle" x="2265" y="-1564.38" font-family="Times,serif" font-size="11.90">runtime.MHeap_LookupMaybe</text>
<text text-anchor="end" x="2340.85" y="-1552.48" font-family="Times,serif" font-size="11.90">18 (0.6%)</text>
</g>
<!-- N9&#45;&gt;N40 -->
<g id="edge14" class="edge"><title>N9&#45;&gt;N40</title>
<path fill="none" stroke="black" d="M1920.14,-1694.72C1986.31,-1669.45 2138.09,-1611.47 2216.36,-1581.58"/>
<polygon fill="black" stroke="black" points="2217.89,-1584.74 2225.98,-1577.9 2215.39,-1578.2 2217.89,-1584.74"/>
<text text-anchor="middle" x="2139" y="-1614.8" font-family="Times,serif" font-size="14.00">18</text>
</g>
<!-- N11 -->
<g id="node12" class="node"><title>N11</title>
<polygon fill="none" stroke="black" points="1604.03,-878.301 1365.97,-878.301 1365.97,-809.699 1604.03,-809.699 1604.03,-878.301"/>
<text text-anchor="middle" x="1485" y="-858.07" font-family="Times,serif" font-size="20.10">runtime.mapaccess2_faststr</text>
<text text-anchor="end" x="1596.35" y="-837.97" font-family="Times,serif" font-size="20.10">177 (5.9%)</text>
<text text-anchor="end" x="1596.35" y="-817.87" font-family="Times,serif" font-size="20.10">of 457 (15.2%)</text>
</g>
<!-- N10&#45;&gt;N11 -->
<g id="edge18" class="edge"><title>N10&#45;&gt;N11</title>
<path fill="none" stroke="black" d="M1485,-927.809C1485,-915.961 1485,-901.778 1485,-888.524"/>
<polygon fill="black" stroke="black" points="1488.5,-888.157 1485,-878.157 1481.5,-888.157 1488.5,-888.157"/>
<text text-anchor="middle" x="1495.5" y="-898.8" font-family="Times,serif" font-size="14.00">457</text>
</g>
<!-- N10&#45;&gt;N15 -->
<g id="edge35" class="edge"><title>N10&#45;&gt;N15</title>
<path fill="none" stroke="black" d="M1422.94,-927.892C1343.93,-894.585 1202.5,-838.947 1076,-810 840.786,-756.176 550.934,-740.597 439.09,-736.419"/>
<polygon fill="black" stroke="black" points="438.949,-732.912 428.83,-736.05 438.697,-739.907 438.949,-732.912"/>
<text text-anchor="middle" x="1303" y="-839.8" font-family="Times,serif" font-size="14.00">10</text>
</g>
<!-- N10&#45;&gt;N22 -->
<g id="edge28" class="edge"><title>N10&#45;&gt;N22</title>
<path fill="none" stroke="black" d="M1295.9,-927.979C1276.07,-922.952 1256.43,-917.013 1238,-910 1226.81,-905.745 1226.21,-900.186 1215,-896 1171.63,-879.809 1122.82,-868.729 1077.32,-861.158"/>
<polygon fill="black" stroke="black" points="1077.8,-857.689 1067.37,-859.547 1076.68,-864.599 1077.8,-857.689"/>
<text text-anchor="middle" x="1245" y="-898.8" font-family="Times,serif" font-size="14.00">80</text>
</g>
<!-- N17 -->
<g id="node18" class="node"><title>N17</title>
<polygon fill="none" stroke="black" points="1583.31,-759.102 1386.69,-759.102 1386.69,-708.898 1583.31,-708.898 1583.31,-759.102"/>
<text text-anchor="middle" x="1485" y="-738.26" font-family="Times,serif" font-size="21.30">runtime.aeshashbody</text>
<text text-anchor="end" x="1575.21" y="-716.96" font-family="Times,serif" font-size="21.30">214 (7.1%)</text>
</g>
<!-- N11&#45;&gt;N17 -->
<g id="edge27" class="edge"><title>N11&#45;&gt;N17</title>
<path fill="none" stroke="black" d="M1485,-809.715C1485,-797.029 1485,-782.545 1485,-769.728"/>
<polygon fill="black" stroke="black" points="1488.5,-769.43 1485,-759.43 1481.5,-769.43 1488.5,-769.43"/>
<text text-anchor="middle" x="1495.5" y="-780.8" font-family="Times,serif" font-size="14.00">212</text>
</g>
<!-- N36 -->
<g id="node37" class="node"><title>N36</title>
<polygon fill="none" stroke="black" points="1368.17,-752.602 1229.83,-752.602 1229.83,-715.398 1368.17,-715.398 1368.17,-752.602"/>
<text text-anchor="middle" x="1299" y="-736.96" font-family="Times,serif" font-size="14.80">runtime.memeqbody</text>
<text text-anchor="end" x="1360.45" y="-722.16" font-family="Times,serif" font-size="14.80">56 (1.9%)</text>
</g>
<!-- N11&#45;&gt;N36 -->
<g id="edge44" class="edge"><title>N11&#45;&gt;N36</title>
<path fill="none" stroke="black" d="M1427.68,-809.715C1398.65,-792.861 1364.16,-772.833 1338.19,-757.758"/>
<polygon fill="black" stroke="black" points="1339.79,-754.64 1329.39,-752.645 1336.28,-760.693 1339.79,-754.64"/>
<text text-anchor="middle" x="1399" y="-780.8" font-family="Times,serif" font-size="14.00">56</text>
</g>
<!-- N13 -->
<g id="node14" class="node"><title>N13</title>
<polygon fill="none" stroke="black" points="1818.45,-871.2 1699.55,-871.2 1699.55,-816.8 1818.45,-816.8 1818.45,-871.2"/>
<text text-anchor="middle" x="1759" y="-848.62" font-family="Times,serif" font-size="23.10">hash_next</text>
<text text-anchor="end" x="1810.96" y="-825.52" font-family="Times,serif" font-size="23.10">274 (9.1%)</text>
</g>
<!-- N14 -->
<g id="node15" class="node"><title>N14</title>
<polygon fill="none" stroke="black" points="421.994,-658 362.006,-658 362.006,-626 421.994,-626 421.994,-658"/>
<text text-anchor="middle" x="392" y="-647.6" font-family="Times,serif" font-size="8.00">growslice1</text>
<text text-anchor="end" x="414.328" y="-639.6" font-family="Times,serif" font-size="8.00">0 (0.0%)</text>
<text text-anchor="end" x="414.328" y="-631.6" font-family="Times,serif" font-size="8.00">of 228 (7.6%)</text>
</g>
<!-- N14&#45;&gt;N19 -->
<g id="edge34" class="edge"><title>N14&#45;&gt;N19</title>
<path fill="none" stroke="black" d="M367.572,-625.902C347.848,-613.712 319.502,-596.192 295.359,-581.27"/>
<polygon fill="black" stroke="black" points="297.025,-578.185 286.678,-575.905 293.344,-584.14 297.025,-578.185"/>
<text text-anchor="middle" x="348.244" y="-596.8" font-family="Times,serif" font-size="14.00">115</text>
</g>
<!-- N28 -->
<g id="node29" class="node"><title>N28</title>
<polygon fill="none" stroke="black" points="430.897,-568.201 353.103,-568.201 353.103,-533.799 430.897,-533.799 430.897,-568.201"/>
<text text-anchor="middle" x="392" y="-557.23" font-family="Times,serif" font-size="8.90">runtime.mallocgc</text>
<text text-anchor="end" x="423.263" y="-548.33" font-family="Times,serif" font-size="8.90">1 (0.0%)</text>
<text text-anchor="end" x="423.263" y="-539.43" font-family="Times,serif" font-size="8.90">of 81 (2.7%)</text>
</g>
<!-- N14&#45;&gt;N28 -->
<g id="edge31" class="edge"><title>N14&#45;&gt;N28</title>
<path fill="none" stroke="black" d="M392,-625.902C392,-612.927 392,-593.916 392,-578.425"/>
<polygon fill="black" stroke="black" points="395.5,-578.381 392,-568.381 388.5,-578.381 395.5,-578.381"/>
<text text-anchor="middle" x="399" y="-596.8" font-family="Times,serif" font-size="14.00">78</text>
</g>
<!-- N38 -->
<g id="node39" class="node"><title>N38</title>
<polygon fill="none" stroke="black" points="551.949,-568.5 450.051,-568.5 450.051,-533.5 551.949,-533.5 551.949,-568.5"/>
<text text-anchor="middle" x="501" y="-553.7" font-family="Times,serif" font-size="13.50">runtime.memclr</text>
<text text-anchor="end" x="544.298" y="-540.2" font-family="Times,serif" font-size="13.50">36 (1.2%)</text>
</g>
<!-- N14&#45;&gt;N38 -->
<g id="edge48" class="edge"><title>N14&#45;&gt;N38</title>
<path fill="none" stroke="black" d="M410.49,-625.902C427.497,-612.016 452.972,-591.216 472.566,-575.217"/>
<polygon fill="black" stroke="black" points="475.03,-577.724 480.562,-568.688 470.602,-572.302 475.03,-577.724"/>
<text text-anchor="middle" x="454" y="-596.8" font-family="Times,serif" font-size="14.00">35</text>
</g>
<!-- N15&#45;&gt;N14 -->
<g id="edge26" class="edge"><title>N15&#45;&gt;N14</title>
<path fill="none" stroke="black" d="M392,-717.733C392,-704.204 392,-684.187 392,-668.273"/>
<polygon fill="black" stroke="black" points="395.5,-668.042 392,-658.042 388.5,-668.042 395.5,-668.042"/>
<text text-anchor="middle" x="402.5" y="-678.8" font-family="Times,serif" font-size="14.00">228</text>
</g>
<!-- N16&#45;&gt;N15 -->
<g id="edge1" class="edge"><title>N16&#45;&gt;N15</title>
<path fill="none" stroke="black" d="M392,-820.884C392,-803.323 392,-778.754 392,-760.391"/>
<polygon fill="black" stroke="black" points="395.5,-760.137 392,-750.137 388.5,-760.137 395.5,-760.137"/>
<text text-anchor="middle" x="402.5" y="-780.8" font-family="Times,serif" font-size="14.00">145</text>
</g>
<!-- N16&#45;&gt;N19 -->
<g id="edge21" class="edge"><title>N16&#45;&gt;N19</title>
<path fill="none" stroke="black" d="M379.101,-820.67C369.648,-804.083 356.661,-780.824 346,-760 314.843,-699.144 281.511,-626.617 262.861,-585.274"/>
<polygon fill="black" stroke="black" points="265.962,-583.637 258.667,-575.954 259.579,-586.51 265.962,-583.637"/>
<text text-anchor="middle" x="318" y="-678.8" font-family="Times,serif" font-size="14.00">53</text>
</g>
<!-- N21 -->
<g id="node22" class="node"><title>N21</title>
<polygon fill="none" stroke="black" points="181.333,-978.503 96.667,-978.503 96.667,-933.497 181.333,-933.497 181.333,-978.503"/>
<text text-anchor="middle" x="139" y="-964.75" font-family="Times,serif" font-size="12.50">copyout</text>
<text text-anchor="end" x="173.888" y="-952.25" font-family="Times,serif" font-size="12.50">24 (0.8%)</text>
<text text-anchor="end" x="173.888" y="-939.75" font-family="Times,serif" font-size="12.50">of 156 (5.2%)</text>
</g>
<!-- N18&#45;&gt;N21 -->
<g id="edge42" class="edge"><title>N18&#45;&gt;N21</title>
<path fill="none" stroke="black" d="M139,-1045.98C139,-1029.11 139,-1006.7 139,-988.597"/>
<polygon fill="black" stroke="black" points="142.5,-988.507 139,-978.507 135.5,-988.507 142.5,-988.507"/>
<text text-anchor="middle" x="149.5" y="-1004.8" font-family="Times,serif" font-size="14.00">156</text>
</g>
<!-- N20&#45;&gt;N13 -->
<g id="edge3" class="edge"><title>N20&#45;&gt;N13</title>
<path fill="none" stroke="black" d="M1759,-935.587C1759,-920.635 1759,-899.534 1759,-881.459"/>
<polygon fill="black" stroke="black" points="1762.5,-881.235 1759,-871.235 1755.5,-881.235 1762.5,-881.235"/>
<text text-anchor="middle" x="1769.5" y="-898.8" font-family="Times,serif" font-size="14.00">176</text>
</g>
<!-- N25 -->
<g id="node26" class="node"><title>N25</title>
<polygon fill="none" stroke="black" points="211.381,-866.2 66.6193,-866.2 66.6193,-821.8 211.381,-821.8 211.381,-866.2"/>
<text text-anchor="middle" x="139" y="-847.62" font-family="Times,serif" font-size="18.10">runtime.slicecopy</text>
<text text-anchor="end" x="203.587" y="-829.52" font-family="Times,serif" font-size="18.10">122 (4.1%)</text>
</g>
<!-- N21&#45;&gt;N25 -->
<g id="edge39" class="edge"><title>N21&#45;&gt;N25</title>
<path fill="none" stroke="black" d="M139,-933.268C139,-917.042 139,-894.63 139,-876.449"/>
<polygon fill="black" stroke="black" points="142.5,-876.313 139,-866.313 135.5,-876.313 142.5,-876.313"/>
<text text-anchor="middle" x="149.5" y="-898.8" font-family="Times,serif" font-size="14.00">122</text>
</g>
<!-- N22&#45;&gt;N15 -->
<g id="edge36" class="edge"><title>N22&#45;&gt;N15</title>
<path fill="none" stroke="black" d="M774.114,-814.058C662.635,-790.993 513.279,-760.092 438.61,-744.643"/>
<polygon fill="black" stroke="black" points="439.083,-741.167 428.581,-742.569 437.665,-748.022 439.083,-741.167"/>
<text text-anchor="middle" x="660" y="-780.8" font-family="Times,serif" font-size="14.00">34</text>
</g>
<!-- N24&#45;&gt;N13 -->
<g id="edge22" class="edge"><title>N24&#45;&gt;N13</title>
<path fill="none" stroke="black" d="M1856.1,-937.082C1839.29,-921.141 1814.28,-897.422 1793.85,-878.049"/>
<polygon fill="black" stroke="black" points="1796.22,-875.472 1786.56,-871.131 1791.4,-880.551 1796.22,-875.472"/>
<text text-anchor="middle" x="1834" y="-898.8" font-family="Times,serif" font-size="14.00">98</text>
</g>
<!-- N39 -->
<g id="node40" class="node"><title>N39</title>
<polygon fill="none" stroke="black" points="1915.02,-865.2 1836.98,-865.2 1836.98,-822.8 1915.02,-822.8 1915.02,-865.2"/>
<text text-anchor="middle" x="1876" y="-851.98" font-family="Times,serif" font-size="11.40">hash_iter_init</text>
<text text-anchor="end" x="1907.34" y="-840.58" font-family="Times,serif" font-size="11.40">14 (0.5%)</text>
<text text-anchor="end" x="1907.34" y="-829.18" font-family="Times,serif" font-size="11.40">of 21 (0.7%)</text>
</g>
<!-- N24&#45;&gt;N39 -->
<g id="edge49" class="edge"><title>N24&#45;&gt;N39</title>
<path fill="none" stroke="black" d="M1875.17,-936.836C1875.32,-920.18 1875.54,-895.184 1875.72,-875.473"/>
<polygon fill="black" stroke="black" points="1879.22,-875.468 1875.81,-865.436 1872.22,-875.404 1879.22,-875.468"/>
<text text-anchor="middle" x="1882" y="-898.8" font-family="Times,serif" font-size="14.00">21</text>
</g>
<!-- N26&#45;&gt;N22 -->
<g id="edge4" class="edge"><title>N26&#45;&gt;N22</title>
<path fill="none" stroke="black" d="M505.93,-1044.19C590.691,-1002.81 753.201,-923.49 845.509,-878.432"/>
<polygon fill="black" stroke="black" points="847.314,-881.446 854.765,-873.914 844.243,-875.155 847.314,-881.446"/>
<text text-anchor="middle" x="751" y="-951.8" font-family="Times,serif" font-size="14.00">44</text>
</g>
<!-- N29 -->
<g id="node30" class="node"><title>N29</title>
<polygon fill="none" stroke="black" points="422.422,-475.201 361.578,-475.201 361.578,-440.799 422.422,-440.799 422.422,-475.201"/>
<text text-anchor="middle" x="392" y="-464.23" font-family="Times,serif" font-size="8.90">largealloc</text>
<text text-anchor="end" x="414.615" y="-455.33" font-family="Times,serif" font-size="8.90">1 (0.0%)</text>
<text text-anchor="end" x="414.615" y="-446.43" font-family="Times,serif" font-size="8.90">of 79 (2.6%)</text>
</g>
<!-- N28&#45;&gt;N29 -->
<g id="edge45" class="edge"><title>N28&#45;&gt;N29</title>
<path fill="none" stroke="black" d="M392,-533.731C392,-520.356 392,-501.137 392,-485.539"/>
<polygon fill="black" stroke="black" points="395.5,-485.435 392,-475.435 388.5,-485.435 395.5,-485.435"/>
<text text-anchor="middle" x="399" y="-496.8" font-family="Times,serif" font-size="14.00">79</text>
</g>
<!-- N30 -->
<g id="node31" class="node"><title>N30</title>
<polygon fill="none" stroke="black" points="435.988,-390 348.012,-390 348.012,-358 435.988,-358 435.988,-390"/>
<text text-anchor="middle" x="392" y="-379.6" font-family="Times,serif" font-size="8.00">runtime.MHeap_Alloc</text>
<text text-anchor="end" x="428.324" y="-371.6" font-family="Times,serif" font-size="8.00">0 (0.0%)</text>
<text text-anchor="end" x="428.324" y="-363.6" font-family="Times,serif" font-size="8.00">of 79 (2.6%)</text>
</g>
<!-- N29&#45;&gt;N30 -->
<g id="edge32" class="edge"><title>N29&#45;&gt;N30</title>
<path fill="none" stroke="black" d="M392,-440.406C392,-428.926 392,-413.432 392,-400.406"/>
<polygon fill="black" stroke="black" points="395.5,-400.186 392,-390.186 388.5,-400.187 395.5,-400.186"/>
<text text-anchor="middle" x="399" y="-410.8" font-family="Times,serif" font-size="14.00">78</text>
</g>
<!-- N31 -->
<g id="node32" class="node"><title>N31</title>
<polygon fill="none" stroke="black" points="434.317,-308 349.683,-308 349.683,-276 434.317,-276 434.317,-308"/>
<text text-anchor="middle" x="392" y="-297.6" font-family="Times,serif" font-size="8.00">MHeap_AllocLocked</text>
<text text-anchor="end" x="426.877" y="-289.6" font-family="Times,serif" font-size="8.00">0 (0.0%)</text>
<text text-anchor="end" x="426.877" y="-281.6" font-family="Times,serif" font-size="8.00">of 78 (2.6%)</text>
</g>
<!-- N30&#45;&gt;N31 -->
<g id="edge10" class="edge"><title>N30&#45;&gt;N31</title>
<path fill="none" stroke="black" d="M392,-357.953C392,-346.849 392,-331.475 392,-318.472"/>
<polygon fill="black" stroke="black" points="395.5,-318.252 392,-308.252 388.5,-318.252 395.5,-318.252"/>
<text text-anchor="middle" x="399" y="-328.8" font-family="Times,serif" font-size="14.00">78</text>
</g>
<!-- N32 -->
<g id="node33" class="node"><title>N32</title>
<polygon fill="none" stroke="black" points="426.988,-226 357.012,-226 357.012,-194 426.988,-194 426.988,-226"/>
<text text-anchor="middle" x="392" y="-215.6" font-family="Times,serif" font-size="8.00">MHeap_Reclaim</text>
<text text-anchor="end" x="419.324" y="-207.6" font-family="Times,serif" font-size="8.00">0 (0.0%)</text>
<text text-anchor="end" x="419.324" y="-199.6" font-family="Times,serif" font-size="8.00">of 78 (2.6%)</text>
</g>
<!-- N31&#45;&gt;N32 -->
<g id="edge40" class="edge"><title>N31&#45;&gt;N32</title>
<path fill="none" stroke="black" d="M392,-275.953C392,-264.849 392,-249.475 392,-236.472"/>
<polygon fill="black" stroke="black" points="395.5,-236.252 392,-226.252 388.5,-236.252 395.5,-236.252"/>
<text text-anchor="middle" x="399" y="-246.8" font-family="Times,serif" font-size="14.00">78</text>
</g>
<!-- N33 -->
<g id="node34" class="node"><title>N33</title>
<polygon fill="none" stroke="black" points="435.182,-143.902 348.818,-143.902 348.818,-106.098 435.182,-106.098 435.182,-143.902"/>
<text text-anchor="middle" x="392" y="-131.86" font-family="Times,serif" font-size="9.80">runtime.sweepone</text>
<text text-anchor="end" x="427.786" y="-122.06" font-family="Times,serif" font-size="9.80">4 (0.1%)</text>
<text text-anchor="end" x="427.786" y="-112.26" font-family="Times,serif" font-size="9.80">of 78 (2.6%)</text>
</g>
<!-- N32&#45;&gt;N33 -->
<g id="edge24" class="edge"><title>N32&#45;&gt;N33</title>
<path fill="none" stroke="black" d="M392,-193.777C392,-182.624 392,-167.171 392,-153.837"/>
<polygon fill="black" stroke="black" points="395.5,-153.72 392,-143.72 388.5,-153.72 395.5,-153.72"/>
<text text-anchor="middle" x="399" y="-164.8" font-family="Times,serif" font-size="14.00">78</text>
</g>
<!-- N34 -->
<g id="node35" class="node"><title>N34</title>
<polygon fill="none" stroke="black" points="474.074,-55.9015 309.926,-55.9015 309.926,-0.0985455 474.074,-0.0985455 474.074,-55.9015"/>
<text text-anchor="middle" x="392" y="-39.06" font-family="Times,serif" font-size="15.80">runtime.MSpan_Sweep</text>
<text text-anchor="end" x="466.383" y="-23.26" font-family="Times,serif" font-size="15.80">73 (2.4%)</text>
<text text-anchor="end" x="466.383" y="-7.46" font-family="Times,serif" font-size="15.80">of 74 (2.5%)</text>
</g>
<!-- N33&#45;&gt;N34 -->
<g id="edge15" class="edge"><title>N33&#45;&gt;N34</title>
<path fill="none" stroke="black" d="M392,-106.131C392,-94.8239 392,-79.7867 392,-65.9937"/>
<polygon fill="black" stroke="black" points="395.5,-65.771 392,-55.771 388.5,-65.771 395.5,-65.771"/>
<text text-anchor="middle" x="399" y="-76.8" font-family="Times,serif" font-size="14.00">74</text>
</g>
</g>
</g></svg>
